<?xml version="1.0" encoding="UTF-8" standalone="no"?>
<!-- Created with Inkscape (http://www.inkscape.org/) -->

<svg
   xmlns:dc="http://purl.org/dc/elements/1.1/"
   xmlns:cc="http://creativecommons.org/ns#"
   xmlns:rdf="http://www.w3.org/1999/02/22-rdf-syntax-ns#"
   xmlns:svg="http://www.w3.org/2000/svg"
   xmlns="http://www.w3.org/2000/svg"
   xmlns:xlink="http://www.w3.org/1999/xlink"
   xmlns:sodipodi="http://sodipodi.sourceforge.net/DTD/sodipodi-0.dtd"
   xmlns:inkscape="http://www.inkscape.org/namespaces/inkscape"
   id="svg9085"
   version="1.1"
   inkscape:version="0.48.3.1 r9886"
   width="600"
   height="480"
   xml:space="preserve"
   sodipodi:docname="logo.svg"
   inkscape:export-filename="logo-60.png"
   inkscape:export-xdpi="9"
   inkscape:export-ydpi="9"><metadata
     id="metadata9091"><rdf:RDF><cc:Work
         rdf:about=""><dc:format>image/svg+xml</dc:format><dc:type
           rdf:resource="http://purl.org/dc/dcmitype/StillImage" /><dc:title></dc:title></cc:Work></rdf:RDF></metadata><defs
     id="defs9089"><linearGradient
       id="linearGradient4464"><stop
         style="stop-color:#202020;stop-opacity:1;"
         offset="0"
         id="stop4466" /><stop
         id="stop4472"
         offset="0.30000001"
         style="stop-color:#8f8f8f;stop-opacity:1;" /><stop
         style="stop-color:#ffffff;stop-opacity:1;"
         offset="1"
         id="stop4468" /></linearGradient><clipPath
       clipPathUnits="userSpaceOnUse"
       id="clipPath9101"><path
         d="m 0,0 1222,0 0,1399.71 -1222,0 L 0,0 z"
         id="path9103"
         inkscape:connector-curvature="0" /></clipPath><linearGradient
       id="linearGradient4570"
       inkscape:collect="always"><stop
         id="stop4572"
         offset="0"
         style="stop-color:#2e3436;stop-opacity:1;" /><stop
         id="stop4574"
         offset="1"
         style="stop-color:#2e3436;stop-opacity:0;" /></linearGradient><linearGradient
       id="linearGradient4590"><stop
         id="stop4592"
         offset="0"
         style="stop-color:#2f312f;stop-opacity:1;" /><stop
         id="stop4594"
         offset="1"
         style="stop-color:#2f312f;stop-opacity:0;" /></linearGradient><linearGradient
       id="linearGradient4598"><stop
         id="stop4600"
         offset="0"
         style="stop-color:#2f312f;stop-opacity:1;" /><stop
         id="stop4602"
         offset="1"
         style="stop-color:#1f211f;stop-opacity:0;" /></linearGradient><linearGradient
       id="linearGradient4606"><stop
         id="stop4608"
         offset="0"
         style="stop-color:#2f312f;stop-opacity:1;" /><stop
         id="stop4610"
         offset="1"
         style="stop-color:#2f312f;stop-opacity:0;" /></linearGradient><linearGradient
       id="linearGradient4801"><stop
         id="stop4803"
         offset="0"
         style="stop-color:#a3a6a2;stop-opacity:1;" /><stop
         id="stop4805"
         offset="1"
         style="stop-color:#a2a6a1;stop-opacity:0;" /></linearGradient><linearGradient
       id="linearGradient4816"><stop
         id="stop4818"
         offset="0"
         style="stop-color:#62655b;stop-opacity:1;" /><stop
         id="stop4820"
         offset="1"
         style="stop-color:#21221e;stop-opacity:0;" /></linearGradient><linearGradient
       inkscape:collect="always"
       xlink:href="#linearGradient4606"
       id="linearGradient3990"
       gradientUnits="userSpaceOnUse"
       gradientTransform="matrix(0.58274222,-0.47810366,-0.47810366,-0.58274222,47.411351,612.45174)"
       x1="226.875"
       y1="550.9375"
       x2="231.09375"
       y2="550.9375" /><linearGradient
       inkscape:collect="always"
       xlink:href="#linearGradient4606"
       id="linearGradient3992"
       gradientUnits="userSpaceOnUse"
       gradientTransform="matrix(0.58274222,-0.47810366,-0.47810366,-0.58274222,47.411351,612.45174)"
       x1="204.34375"
       y1="551.03125"
       x2="208.59375"
       y2="551.03125" /><linearGradient
       inkscape:collect="always"
       xlink:href="#linearGradient4590"
       id="linearGradient3994"
       gradientUnits="userSpaceOnUse"
       gradientTransform="matrix(0.58274222,-0.47810366,-0.47810366,-0.58274222,47.411351,612.45174)"
       x1="211.84375"
       y1="551.35938"
       x2="216.09375"
       y2="551.35938" /><linearGradient
       inkscape:collect="always"
       xlink:href="#linearGradient4598"
       id="linearGradient3996"
       gradientUnits="userSpaceOnUse"
       gradientTransform="matrix(0.58274222,-0.47810366,-0.47810366,-0.58274222,47.411351,612.45174)"
       x1="219.34375"
       y1="551.35938"
       x2="223.59375"
       y2="551.35938" /><linearGradient
       inkscape:collect="always"
       xlink:href="#linearGradient4570"
       id="linearGradient3998"
       gradientUnits="userSpaceOnUse"
       gradientTransform="matrix(0.75377158,0,0,0.75377158,-351.81324,-503.55974)"
       x1="216"
       y1="435.98718"
       x2="216"
       y2="439.86218" /><linearGradient
       inkscape:collect="always"
       xlink:href="#linearGradient4606"
       id="linearGradient4000"
       gradientUnits="userSpaceOnUse"
       gradientTransform="matrix(0.75377158,0,0,0.75377158,-351.81324,-499.414)"
       x1="216"
       y1="435.98718"
       x2="216"
       y2="439.86218" /><linearGradient
       inkscape:collect="always"
       xlink:href="#linearGradient4801"
       id="linearGradient4002"
       gradientUnits="userSpaceOnUse"
       gradientTransform="matrix(0.58274222,-0.47810366,-0.47810366,-0.58274222,-17.497003,665.705)"
       x1="329.875"
       y1="390.71875"
       x2="329.875"
       y2="427.375" /><radialGradient
       inkscape:collect="always"
       xlink:href="#linearGradient4816"
       id="radialGradient4004"
       gradientUnits="userSpaceOnUse"
       gradientTransform="matrix(0.73222319,-0.60074347,-0.78853572,-0.96111595,-10.050197,925.07259)"
       cx="439.70035"
       cy="352.87976"
       fx="439.70035"
       fy="352.87976"
       r="46.78125" /><radialGradient
       inkscape:collect="always"
       xlink:href="#linearGradient4816"
       id="radialGradient4006"
       gradientUnits="userSpaceOnUse"
       gradientTransform="matrix(0.73222319,-0.60074347,-0.78853572,-0.96111595,-10.050197,925.07259)"
       cx="439.70035"
       cy="352.87976"
       fx="439.70035"
       fy="352.87976"
       r="46.78125" /><linearGradient
       inkscape:collect="always"
       xlink:href="#linearGradient4464"
       id="linearGradient4470"
       x1="37.127068"
       y1="204.43078"
       x2="187.6066"
       y2="204.43078"
       gradientUnits="userSpaceOnUse" /></defs><sodipodi:namedview
     pagecolor="#ff3a3a"
     bordercolor="#666666"
     borderopacity="1"
     objecttolerance="10"
     gridtolerance="10"
     guidetolerance="10"
     inkscape:pageopacity="0"
     inkscape:pageshadow="2"
     inkscape:window-width="1561"
     inkscape:window-height="1043"
     id="namedview9087"
     showgrid="false"
     inkscape:zoom="1.8854167"
     inkscape:cx="300"
     inkscape:cy="240"
     inkscape:window-x="48"
     inkscape:window-y="107"
     inkscape:window-maximized="0"
     inkscape:current-layer="g9093" /><g
     id="g9093"
     inkscape:groupmode="layer"
     inkscape:label="hoodie_man_free_vector"
     transform="matrix(1.25,0,0,-1.25,0,479.99999)"><g
       id="g3978"
       transform="matrix(0.53609192,-0.32289235,0.32289235,0.53609192,41.2618,44.608305)"><path
         inkscape:connector-curvature="0"
         style="opacity:0.49295773999999998;fill:url(#radialGradient4006);fill-opacity:1;stroke:#000000;stroke-opacity:1"
         d="m 53.027825,359.64623 c -14.40693,11.81999 -48.0072877,-2.92006 -68.856427,-28.33229 -15.939708,-19.4283 -19.811862,-39.48977 -14.323298,-53.14683 -0.07889,-0.17944 -0.16628,-0.35041 -0.249316,-0.5267 l 18.975546,-15.56825 c 0.07349,0.0605 0.141237,0.12964 0.21571,0.18865 14.5403788,-3.0477 33.742266,4.62141 49.904176,24.32056 20.849146,25.41222 28.740537,61.24487 14.333609,73.06486 z"
         id="path4824" /><path
         inkscape:connector-curvature="0"
         id="path4670"
         d="m 52.923187,360.70707 c -14.406931,11.81999 -48.0072882,-2.92005 -68.856428,-28.33228 -15.939708,-19.4283 -19.811865,-39.48977 -14.323297,-53.14683 -0.801339,-1.8226 -1.810895,-3.4873 -3.13237,-4.8949 L -136.91329,148.15115 c -2.80937,-3.42422 -2.33067,-8.4472 1.09357,-11.25654 l 6.11879,-5.02009 c 3.42423,-2.80937 8.44392,-2.2975 11.25328,1.12672 l 103.524385,126.18191 c 0.992919,1.6721 2.21579,3.03458 3.608667,4.1385 14.5403784,-3.04769 33.742266,4.62142 49.904176,24.32056 20.849145,25.41223 28.740537,61.24488 14.333609,73.06486 z"
         style="fill:#808c74;fill-opacity:1;stroke:#000000;stroke-opacity:1" /><path
         inkscape:connector-curvature="0"
         style="fill:url(#linearGradient3990);fill-opacity:1;stroke:none"
         d="m -39.460087,234.46424 c -0.679454,0.55745 -1.663699,0.46037 -2.221149,-0.21909 L -126.88827,130.38956 c 1.31154,-0.38657 2.69692,-0.4196 4.01228,-0.12308 l 83.653197,101.96167 c 0.55745,0.67946 0.460364,1.66371 -0.219084,2.22115 l -0.01821,0.0149 z"
         id="path4672"
         sodipodi:nodetypes="ccccccc" /><path
         inkscape:connector-curvature="0"
         style="fill:url(#linearGradient3992);fill-opacity:1;stroke:none"
         d="m -52.571788,245.22157 c -0.679455,0.55745 -1.68191,0.47531 -2.23936,-0.20414 L -138.71834,142.74617 c 0.0509,-1.29829 0.41574,-2.58279 1.08717,-3.72554 l 85.296679,103.96486 c 0.55745,0.67945 0.460361,1.6637 -0.219087,2.22114 l -0.01821,0.0149 z"
         id="path4674"
         sodipodi:nodetypes="ccccccc" /><path
         inkscape:connector-curvature="0"
         style="fill:url(#linearGradient3994);fill-opacity:1;stroke:none"
         d="m -48.201222,241.6358 c -0.679455,0.55745 -1.681907,0.4753 -2.239357,-0.20415 L -136.03607,137.10258 c 0.0765,-0.0675 0.14222,-0.14715 0.22179,-0.21243 l 2.23992,-1.83772 85.610438,104.34728 c 0.55745,0.67946 0.46036,1.66371 -0.219087,2.22115 l -0.01821,0.0149 z"
         id="path4676"
         sodipodi:nodetypes="cccccccc" /><path
         inkscape:connector-curvature="0"
         style="fill:url(#linearGradient3996);fill-opacity:1;stroke:none"
         d="m -43.830656,238.05002 c -0.679455,0.55745 -1.681907,0.47531 -2.239357,-0.20415 l -85.610437,-104.34728 1.98497,-1.62854 c 0.16524,-0.13557 0.3493,-0.24682 0.52157,-0.36698 l 85.580551,104.31086 c 0.55745,0.67946 0.460364,1.6637 -0.219087,2.22115 l -0.01821,0.0149 z"
         id="path4678"
         sodipodi:nodetypes="cccccccc" /><rect
         transform="matrix(0.77310187,-0.63428188,-0.63428188,-0.77310187,0,0)"
         style="opacity:0.32042254;fill:url(#linearGradient3998);fill-opacity:1;stroke:none"
         id="rect4682"
         width="22.236261"
         height="3.7688577"
         x="-198.98604"
         y="-174.92499"
         ry="1.5863986" /><rect
         transform="matrix(0.77310187,-0.63428188,-0.63428188,-0.77310187,0,0)"
         ry="1.5863986"
         y="-170.77924"
         x="-198.98604"
         height="3.7688577"
         width="22.236261"
         id="rect4684"
         style="opacity:0.32042254;fill:url(#linearGradient4000);fill-opacity:1;stroke:none" /><path
         inkscape:connector-curvature="0"
         id="path4793"
         d="m 53.505929,360.22897 c -14.406931,11.81999 -48.0072885,-2.92006 -68.856428,-28.33229 -15.939708,-19.4283 -19.811862,-39.48976 -14.323297,-53.14683 -0.80134,-1.8226 -1.810895,-3.4873 -3.13237,-4.8949 l -4.825859,-5.88205 18.465642,-15.14991 4.82586,5.88206 c 0.992919,1.6721 2.21579,3.03458 3.608667,4.1385 14.5403781,-3.04769 33.742266,4.62142 49.904176,24.32056 20.849145,25.41223 28.740536,61.24487 14.333609,73.06486 z"
         style="fill:url(#linearGradient4002);fill-opacity:1;stroke:none" /><path
         inkscape:connector-curvature="0"
         id="path4809"
         d="m 53.027825,359.64623 c -14.40693,11.81999 -48.0072877,-2.92006 -68.856427,-28.33229 -15.939708,-19.4283 -19.811862,-39.48977 -14.323298,-53.14683 -0.07889,-0.17944 -0.16628,-0.35041 -0.249316,-0.5267 l 18.975546,-15.56825 c 0.07349,0.0605 0.141237,0.12964 0.21571,0.18865 14.5403788,-3.0477 33.742266,4.62141 49.904176,24.32056 20.849146,25.41222 28.740537,61.24487 14.333609,73.06486 z"
         style="fill:url(#radialGradient4004);fill-opacity:1;stroke:none" /></g><path
       inkscape:connector-curvature="0"
       style="fill:#231f1f;fill-opacity:1"
       d="m 41.939318,57.947114 c -0.219078,0.288766 -1.048942,3.775688 -1.844128,7.748721 -0.795174,3.973023 -1.764745,8.819896 -2.154585,10.770841 -0.38984,1.950962 -0.974524,5.273657 -1.299304,7.383778 -0.324792,2.110103 -0.808392,4.816816 -1.074689,6.014864 -0.26631,1.198054 -0.751337,3.404061 -1.077862,4.902251 -1.613193,7.401751 -5.757828,15.890041 -9.80183,20.074381 -5.6968,5.89448 -11.773138,14.35679 -14.302698,19.91889 -0.680463,1.49623 -2.289676,6.51387 -3.576041,11.15028 l -2.338831,8.42987 0.57914,4.23772 c 0.46266,3.3855 0.419691,4.58456 -0.213681,5.96237 -1.443005,3.13902 -1.412419,6.66957 0.08963,10.34621 0.761032,1.86278 1.867397,4.02939 2.458835,4.81456 1.44467,1.91832 4.850071,3.83987 7.236601,4.08334 l 1.94741,0.19875 -0.260869,2.89487 c -0.465841,5.17039 2.291439,9.77635 7.143718,11.93326 3.944206,1.75325 7.030087,1.43574 10.019128,-1.03093 l 2.365005,-1.95168 -0.535603,1.76136 c 1.557002,3.33891 -1.587414,1.1153 2.417821,6.4401 2.86572,3.97137 7.481041,3.03938 11.177654,2.17692 2.355737,-0.54963 2.022246,-0.0111 5.773804,-4.39634 l 2.330243,-3.07048 1.537933,4.18641 c 0.935932,2.5477 4.10825,4.20247 6.790453,4.33559 4.637792,0.23015 9.955258,-2.36562 12.425908,-6.2973 2.70787,-4.30909 0.0373,-10.39661 0.31067,-15.26466 l 0.49702,-8.85098 1.61596,-1.23569 c 2.41097,-1.84358 4.07243,-4.78722 4.35241,-7.71129 0.22675,-2.36813 -1.34723,-14.67832 -2.22352,-17.39019 -1.5959,-4.93888 -3.29067,-13.96043 -3.55032,-18.89898 -0.39116,-7.4393 0.4004,-11.68028 3.02626,-16.21421 4.62111,-7.97895 12.15857,-23.227758 18.29669,-37.015434 l 23.98696,-89.854557 -32.16494,-3.079855 c -21.115965,-2.0219 -32.301784,-2.899496 -32.563291,-2.554812 z"
       id="path2860"
       sodipodi:nodetypes="csssssssscssssccssscccaccsaascsssssscscc" /><path
       transform="matrix(1.029434,0,0,-1.1087379,214.66853,400.7458)"
       style="fill:url(#linearGradient4470);fill-opacity:1;fill-rule:evenodd;stroke:none"
       d="m 177.67956,204.72928 c 0,60.34245 -31.46375,109.25967 -70.27625,109.25967 -38.812496,0 -70.276242,-48.91722 -70.276242,-109.25967 0,-40.18325 10.24299,-66.11529 31.026955,-85.09405 10.426933,-9.5213 26.694991,-16.5117 39.249287,-23.782922 8.02043,-4.645286 14.74638,8.244242 38.86586,17.348192 5.34857,2.01883 44.11975,48.07692 41.17841,70.31976 -1.54067,11.65076 -9.76802,8.57419 -9.76802,21.20902 z"
       id="path4454"
       inkscape:connector-curvature="0"
       sodipodi:nodetypes="ssssssss" /><path
       transform="matrix(0.62702703,0,0,-0.71724138,207.81986,387.8334)"
       style="fill:#aa0000;fill-opacity:1;fill-rule:evenodd;stroke:none"
       d="m 237.93207,266.50054 c 3.28345,21.34352 -20.54295,20.43869 -42.21936,20.43869 -21.67642,0 -39.24862,-6.88641 -39.24862,-15.38122 0,-5.22791 10.877,-6.70281 21.04859,-9.48212 6.35618,-1.73677 27.21919,-6.03578 35.55541,-6.03578 21.67641,0 23.56881,2.04141 24.86398,10.46043 z"
       id="path4459"
       inkscape:connector-curvature="0"
       sodipodi:nodetypes="ssssss" /><g
       id="g4419"
       transform="matrix(0.42927724,0,0,0.42927724,237.24851,221.28474)"><g
         id="g3238"
         transform="matrix(0.20219919,0,0,-0.20219919,115.4679,1.463958)"
         style="opacity:0.98999999"><path
           sodipodi:nodetypes="csccccc"
           id="path3218"
           d="m 707.20593,345.73284 c -3.51053,-7.3151 35.82136,-35.16551 50.34508,-26.12244 l 25.17254,15.67346 -1.42486,60.31911 -35.14657,25.6475 -38.94619,-14.24861 0,-61.26902 z"
           style="fill:#b3b3b3;fill-rule:evenodd;stroke:#000000;stroke-width:1px;stroke-linecap:butt;stroke-linejoin:miter;stroke-opacity:1"
           inkscape:connector-curvature="0" /><path
           id="path3222"
           d="M 772.4375,329.03125 C 772.19463,328.66696 774.8798,382.73917 758,390.5 c -18.25985,8.39532 -28.5625,-4.375 -28.5625,-4.375 l -8.71875,21.5 c 1.07487,2.1049 2.19809,3.92187 3.34375,5.53125 l 22.09375,8.09375 35.15625,-25.65625 1.40625,-60.3125 -9.84375,-6.125 -0.4375,-0.125 z"
           style="fill:#808080;fill-rule:evenodd;stroke:none"
           inkscape:connector-curvature="0" /><path
           style="fill:#666666;fill-rule:evenodd;stroke:none"
           d="m 743.875,318.65625 c -10.3942,2.42947 -22.61838,9.81539 -30.0625,16.5 l 7.65625,8.6875 c 5.43635,-8.79731 12.60693,-17.2628 22.40625,-25.1875 z"
           id="path3247"
           inkscape:connector-curvature="0" /></g><path
         style="opacity:0.98999999;fill:#cccccc;fill-opacity:1;fill-rule:evenodd;stroke:#000000;stroke-width:0.30329871;stroke-linecap:butt;stroke-linejoin:miter;stroke-miterlimit:4;stroke-opacity:1;stroke-dasharray:none;display:inline"
         d="m 249.21818,-73.82065 c 0.38398,0.6071 6.46785,12.468804 14.08905,5.880454 2.67917,-2.316084 1.53267,-9.121704 1.18055,-13.083094 l -15.84581,-5.57004 0.57621,12.77268 z"
         id="path3406"
         sodipodi:nodetypes="csccc"
         inkscape:connector-curvature="0" /><path
         style="opacity:0.98999999;fill:#cccccc;fill-rule:evenodd;stroke:#000000;stroke-width:0.30329871;stroke-linecap:butt;stroke-linejoin:miter;stroke-miterlimit:4;stroke-opacity:1;stroke-dasharray:none;display:inline"
         d="m 250.29308,-68.7147 c 2.78412,-1.44162 1.89412,-7.62094 1.35814,-13.34376 l -18.60656,0.10186 0.10186,7.63956 c -0.40133,0.17583 0.11865,4.07249 3.02187,4.14234 0,0 3.80929,0.27083 5.97583,1.0186 1.65484,0.57116 8.14886,0.4414 8.14886,0.4414 z"
         id="path3404"
         sodipodi:nodetypes="cccccsc"
         inkscape:connector-curvature="0" /><path
         style="opacity:0.98999999;fill:#b3b3b3;fill-opacity:1;fill-rule:evenodd;stroke:#000000;stroke-width:0.30329871;stroke-linecap:butt;stroke-linejoin:miter;stroke-miterlimit:4;stroke-opacity:1;stroke-dasharray:none;display:inline"
         d="m 189.79945,-73.31009 c 2.70782,1.54399 5.63314,2.78682 9.507,2.71629 3.48512,-0.40352 8.54621,-0.41789 10.45771,-1.22232 3.28471,-1.38236 2.65575,-5.0557 2.68233,-5.09305 l -22.64704,3.59908 z"
         id="path3400"
         sodipodi:nodetypes="ccscc"
         inkscape:connector-curvature="0" /><path
         style="opacity:0.98999999;fill:#999999;fill-rule:evenodd;stroke:none;display:inline"
         d="m 233.14781,-74.40496 -0.1011,-7.55087 3.31733,-0.0189 c 0.2367,0.57289 0.35582,1.29296 0.3033,2.19892 -0.20492,3.53486 -1.94491,4.88199 -3.51953,5.37091 z"
         id="path3229"
         inkscape:connector-curvature="0" /><path
         style="opacity:0.98999999;fill:#cccccc;fill-rule:evenodd;stroke:#000000;stroke-width:0.30329871;stroke-linecap:butt;stroke-linejoin:miter;stroke-miterlimit:4;stroke-opacity:1;stroke-dasharray:none;display:inline"
         d="m 210.78276,-78.63497 c 1.1175,2.78721 -0.11756,7.22664 4.10839,7.74141 6.68811,0.81471 17.16155,-0.19387 17.92748,-0.78093 0.55205,-0.42312 0.98297,-6.45159 0.13582,-9.40514 -8.13145,-1.13837 -14.96288,1.15061 -22.17169,2.44466 z"
         id="path3402"
         sodipodi:nodetypes="csscc"
         inkscape:connector-curvature="0" /><g
         id="g3587"
         style="opacity:0.98999999;stroke:none"
         transform="matrix(0.20219919,0,0,-0.20219919,115.4679,1.463958)"><path
           sodipodi:nodetypes="csczcc"
           id="path3386"
           d="m 303.74775,287.6854 55.24616,19.14304 c 20.12669,6.97399 29.60492,-4.39082 35.26351,-11.7545 15.37897,22.83318 42.16384,-7.31579 44.13453,-12.47886 1.97069,-5.16307 9.30981,-25.59399 9.26449,-25.47139 -63.78984,-16.70724 -105.05522,4.87712 -143.90869,30.56171 z"
           style="fill:#f2f2f2;fill-rule:evenodd;stroke:#000000;stroke-width:2.79999995;stroke-linecap:butt;stroke-linejoin:miter;stroke-miterlimit:4;stroke-opacity:1;stroke-dasharray:none;display:inline"
           inkscape:connector-curvature="0" /><path
           id="path3575"
           d="M 403.71875,251.25 C 363.38027,251.4762 332.8901,268.42406 303.75,287.6875 L 359,306.84375 c 20.1267,6.974 29.59141,-4.41757 35.25,-11.78125 1.68208,2.49738 3.49867,4.38699 5.40625,5.71875 3.73804,-7.139 8.63432,-14.8416 14.96875,-18.6875 7.72615,-4.69088 20.01676,-10.12692 29.03125,-13.90625 2.12287,-5.86751 4.02308,-11.12494 4,-11.0625 -15.94746,-4.17681 -30.49134,-5.9504 -43.9375,-5.875 z"
           style="fill:#cccccc;fill-rule:evenodd;stroke:none;display:inline"
           inkscape:connector-curvature="0" /><path
           id="path3582"
           d="m 403.71875,251.25 c -40.33848,0.2262 -70.82865,17.17406 -99.96875,36.4375 l 47.96875,16.625 61.03125,-43.125 -0.625,-9.71875 c -2.84871,-0.14445 -5.65227,-0.23419 -8.40625,-0.21875 z"
           style="fill:#999999;fill-rule:evenodd;stroke:none;display:inline"
           inkscape:connector-curvature="0" /></g><g
         id="g3624"
         transform="matrix(0.20219919,0,0,-0.20219919,115.4679,1.463958)"
         style="opacity:0.98999999"><path
           sodipodi:nodetypes="ccccccc"
           id="path3396"
           d="m 735.09572,288.02472 c 10.02318,9.83797 19.57875,8.92083 28.97218,4.27458 3.56589,3.60516 9.432,4.45005 16.14842,4.27458 11.49343,-11.60915 15.81451,-34.14759 14.01113,-66.01855 l -25.17254,-19.23562 -25.41002,2.84972 -8.54917,73.85529 z"
           style="fill:#f2f2f2;fill-rule:evenodd;stroke:#000000;stroke-width:2.20000005;stroke-linecap:butt;stroke-linejoin:miter;stroke-miterlimit:4;stroke-opacity:1;stroke-dasharray:none;display:inline"
           inkscape:connector-curvature="0" /><path
           id="path3612"
           d="m 769.0625,211.3125 -25.40625,2.84375 -1.875,16.25 c 16.93569,7.35691 33.65522,16.28907 46.53125,53.6875 5.37916,-12.66571 7.19812,-30.70016 5.90625,-53.53125 l -25.15625,-19.25 z"
           style="fill:#999999;fill-opacity:1;fill-rule:evenodd;stroke:none;display:inline"
           inkscape:connector-curvature="0" /><path
           id="path3619"
           d="m 779.40625,219.21875 c 5.14058,19.41738 10.14546,38.80274 11.5625,57.15625 3.3006,-11.9084 4.29884,-27.27637 3.25,-45.8125 l -14.8125,-11.34375 z"
           style="fill:#666666;fill-rule:evenodd;stroke:none;display:inline"
           inkscape:connector-curvature="0" /></g><path
         style="opacity:0.98999999;fill:none;stroke:#000000;stroke-width:0.38417837;stroke-linecap:butt;stroke-linejoin:miter;stroke-miterlimit:4;stroke-opacity:1;stroke-dasharray:none"
         d="m 270.02459,-57.459846 c 3.12166,5.168207 3.6232,10.474305 3.32744,15.822369"
         id="path3196"
         sodipodi:nodetypes="cc"
         inkscape:connector-curvature="0" /><g
         id="g3192"
         transform="matrix(0.20219919,0,0,-0.20219919,115.4679,1.463958)"
         style="opacity:0.98999999"><path
           sodipodi:nodetypes="ccccscc"
           id="path3394"
           d="m 624.81358,211.44905 -16.4563,63.47432 c 22.48528,19.79667 42.53828,42.02527 68.51196,29.55417 14.72582,-4.13892 27.51633,-9.56806 57.76498,-3.35843 8.06824,-0.36982 14.9769,-12.95894 17.79967,-28.2108 4.08722,-22.08386 4.30151,-45.18388 1.00753,-64.146 l -128.62784,2.68674 z"
           style="fill:#ececec;fill-opacity:1;fill-rule:evenodd;stroke:#000000;stroke-width:2.20000005;stroke-linecap:butt;stroke-linejoin:miter;stroke-miterlimit:4;stroke-opacity:1;stroke-dasharray:none;display:inline"
           inkscape:connector-curvature="0" /><path
           sodipodi:nodetypes="cccscc"
           id="path3567"
           d="m 753.4375,208.75 -128.625,2.6875 -13.21875,51 c 3.26944,-1.06171 5.49819,-13.87903 61.90028,-29.28148 69.56837,-18.99795 77.30119,7.8672 81.94347,14.09398 0.71318,-13.59424 0.026,-26.83724 -2,-38.5 z"
           style="fill:#999999;fill-opacity:1;fill-rule:evenodd;stroke:none;display:inline"
           inkscape:connector-curvature="0" /></g><path
         style="opacity:0.98999999;fill:#b3b3b3;fill-opacity:1;fill-rule:evenodd;stroke:#000000;stroke-width:0.30329871;stroke-linecap:butt;stroke-linejoin:miter;stroke-miterlimit:4;stroke-opacity:1;stroke-dasharray:none;display:inline"
         d="m 171.18956,-68.80281 c -0.62786,1.050717 4.8401,4.310655 8.69119,0.38414 1.72861,-0.81309 2.23962,-0.79307 5.49309,-2.64948 1.91864,-0.27095 2.57624,-1.34437 3.56512,-2.20698 l -6.55304,-2.24094 -11.19636,6.71326 z"
         id="path3398"
         sodipodi:nodetypes="cccccc"
         inkscape:connector-curvature="0" /><g
         id="g3561"
         style="opacity:0.98999999;stroke:none"
         transform="matrix(0.20219919,0,0,-0.20219919,115.4679,1.463958)"><path
           sodipodi:nodetypes="ccccccc"
           id="path3392"
           d="m 419.25157,242.66665 c 28.24959,31.2493 58.41382,80.08642 85.49165,72.6679 38.58112,6.91161 42.95797,-0.80741 55.09462,-4.74953 57.57043,1.51163 49.9368,-14.05399 57.46939,-25.6475 1.54473,-18.87828 1.7717,-39.54926 -0.47496,-62.21892 L 495.7191,208.94494 419.25157,242.66665 z"
           style="fill:#e6e6e6;fill-rule:evenodd;stroke:#000000;stroke-width:2.70000005;stroke-linecap:butt;stroke-linejoin:miter;stroke-miterlimit:4;stroke-opacity:1;stroke-dasharray:none;display:inline"
           inkscape:connector-curvature="0" /><path
           sodipodi:nodetypes="cccscccc"
           id="path3556"
           d="M 495.71875,208.9375 419.25,242.65625 c 10.78721,11.93265 21.83914,26.42484 32.90625,39.375 9.11326,-18.27139 21.15391,-42.686 67.90625,-35.5625 28.81442,4.39036 69.26963,-4.65904 96.90625,-6.65625 l 1.125,0.3125 c -0.26979,-5.67206 -0.66102,-11.46317 -1.25,-17.40625 l -121.125,-13.78125 z"
           style="fill:#999999;fill-opacity:1;fill-rule:evenodd;stroke:none;display:inline"
           inkscape:connector-curvature="0" /></g><path
         style="opacity:0.98999999;fill:#999999;fill-rule:evenodd;stroke:#000000;stroke-width:0.20219915px;stroke-linecap:round;stroke-linejoin:round;stroke-opacity:1;display:inline"
         d="m 163.79891,-66.944141 c 2.82091,1.358759 5.59432,2.809967 8.14886,6.654904 -4.70002,-0.241936 -14.97306,-0.891067 -8.14886,-6.654904 z"
         id="path3380"
         sodipodi:nodetypes="ccc"
         inkscape:connector-curvature="0" /><path
         style="opacity:0.98999999;fill:#f2f2f2;fill-rule:evenodd;stroke:none"
         d="m 215.69529,-72.98673 c -2.81271,1.78501 14.7155,1.18074 15.23868,0.16709 0,0 0.32324,-2.45407 -1.20942,-2.6733 -1.00583,-0.14387 -2.41884,1.29488 -2.41884,1.29488 -2.68833,1.43915 -9.82104,0.0758 -11.61042,1.21133 z"
         id="path3216"
         sodipodi:nodetypes="cssss"
         inkscape:connector-curvature="0" /><path
         sodipodi:nodetypes="cssss"
         id="path3234"
         d="m 239.25227,-79.30739 c -0.65742,-1.75486 -1.04842,8.64135 -0.63534,9.00274 0,0 1.035,0.31705 1.18526,-0.57803 0.0986,-0.58742 -0.46289,-1.49681 -0.46289,-1.49681 -0.51447,-1.66356 0.33119,-5.8115 -0.087,-6.9279 z"
         style="opacity:0.98999999;fill:#f2f2f2;fill-rule:evenodd;stroke:none"
         inkscape:connector-curvature="0" /><path
         style="opacity:0.98999999;fill:#b3b3b3;fill-rule:evenodd;stroke:none"
         d="m 260.57712,-68.92311 c 0,0 1.24846,-10.3718 2.49691,-9.50748 1.24846,0.86431 2.01674,6.14625 1.3445,7.58678 -0.67225,1.44053 -2.9771,4.801761 -3.84141,1.9207 z"
         id="path3236"
         inkscape:connector-curvature="0" /><path
         style="opacity:0.98999999;fill:#ffffff;fill-opacity:1;fill-rule:nonzero;stroke:none"
         d="m 267.01635,-68.87509 c 0.0725,-1.4048 -0.2365,-2.54493 -0.68979,-2.54493 -0.45329,0 -0.88003,1.14013 -0.95256,2.54493 -0.0725,1.404804 0.2365,2.544938 0.68979,2.544938 0.45328,0 0.88003,-1.140134 0.95256,-2.544938 z"
         id="path3242"
         inkscape:connector-curvature="0" /><path
         style="opacity:0.98999999;fill:#ffffff;fill-opacity:1;fill-rule:nonzero;stroke:none"
         d="m 248.69958,-55.731185 c 0,-2.389658 0.92062,-3.645553 -1.07456,-3.645553 -1.99519,0 -5.56824,2.395133 -5.56824,4.784791 0,2.389657 0.25164,5.468318 2.24683,5.468318 1.99519,0 4.39597,-4.217899 4.39597,-6.607556 z"
         id="path3524"
         sodipodi:nodetypes="csssc"
         inkscape:connector-curvature="0" /><path
         sodipodi:nodetypes="csssc"
         id="path3527"
         d="m 218.62521,-57.261201 c 0.55821,-2.323544 1.15166,-3.472599 0.50133,-3.628835 -0.65034,-0.156244 -2.37447,1.892834 -2.93267,4.216379 -0.55822,2.323544 -1.19535,5.336736 -0.54502,5.492979 0.65033,0.156229 2.41815,-3.756978 2.97636,-6.080523 z"
         style="opacity:0.98999999;fill:#ffffff;fill-opacity:1;fill-rule:nonzero;stroke:none"
         inkscape:connector-curvature="0" /><path
         sodipodi:nodetypes="csssc"
         id="path3529"
         d="m 269.81025,-55.241784 c -0.84595,-0.603839 -1.05792,-1.247096 -1.56208,-0.540786 -0.50416,0.70631 -0.55914,2.576424 0.28681,3.180263 0.84597,0.603846 1.99943,1.292706 2.50359,0.586397 0.50417,-0.70631 -0.38236,-2.622035 -1.22832,-3.225874 z"
         style="opacity:0.98999999;fill:#ffffff;fill-opacity:1;fill-rule:nonzero;stroke:none"
         inkscape:connector-curvature="0" /></g><g
       id="g9095"
       transform="matrix(0.27238474,0,0,0.27238474,148.59376,-1.2547691)"><g
         id="g9097"><g
           id="g9099"
           clip-path="url(#clipPath9101)"><path
             d="m 656.957,1082.98 c 0,0 -18.059,-4.16 -38.891,-20.83 -20.832,-16.67 -24.996,-11.11 -55.554,-34.72 -30.555,-23.61 -44.442,-34.723 -44.442,-34.723 0,0 -2.777,-5.555 23.61,-9.723 26.39,-4.168 43.054,-4.168 55.554,-1.382 12.5,2.769 8.336,0 18.059,-5.563 9.723,-5.555 0,-2.773 30.559,-2.773 30.546,0 -1.395,-1.395 -11.118,-6.95 -9.718,-5.55 -5.61855,-9.94655 -17.28778,-25.871 -17.94522,-24.48899 -41.04822,-3.297 -52.15322,-0.511 -11.113,2.773 -20.836,5.55 -27.781,4.168 -6.942,-1.395 -12.5,-11.118 -12.5,-11.118 l 13.89,0 c 0,0 8.336,2.782 4.168,-5.55 -4.168,-8.332 -9.722,-12.5 -22.222,-12.5 -12.5,0 -27.778,6.937 -23.61,11.105 4.164,4.164 -15.281,2.777 -15.281,2.777 0,0 -12.5,-2.777 -13.887,-6.945 -1.39,-4.168 -0.004,-11.105 13.887,-16.668 13.891,-5.555 23.613,-5.555 38.891,-4.164 15.277,1.395 16.664,4.164 27.777,8.332 11.113,4.168 20.832,2.777 20.832,2.777 l 18.055,23.618 27.5801,1.52444 -17.544,-49.45977 -17.77355,-15.81366 c 0,0 -2.01478,-6.88211 -38.60555,-11.16789 -12.61378,-10.94133 -42.16107,-4.7332 -57.70822,0.82111 l -33.55856,11.98899 c 0,0 -26.27722,-14.28822 -23.50022,-26.78822 2.778,-12.5 4.168,-19.437 23.61,-22.223 19.445,-2.777 27.781,-1.382 40.281,5.555 12.5,6.945 26.387,11.113 29.164,2.781 2.781,-8.336 0,-22.218 -6.945,-37.5 -6.942,-15.277 -8.332,-26.382 0,-43.05 8.336,-16.668 8.336,-15.286 13.89,-41.668 5.555,-26.395 -4.164,-4.164 -16.664,12.5 -12.5,16.668 -25,15.273 -25,15.273 0,0 -15.281,-20.836 -13.89,-33.336 1.39,-12.5 -4.168,-23.601 12.5,-48.601 16.664,-25 25,-33.336 34.722,-38.899 9.723,-5.555 20.832,-5.555 20.832,-5.555 0,0 2.778,1.391 8.336,15.286 5.555,13.882 -2.781,38.882 -2.781,38.882 0,0 5.555,-9.714 15.281,-18.05 10.965,-9.375 15.192,-19.055 13.2,-33.688 -2.575,-18.941 -5.317,-37.863 -6.852,-56.918 -1.668,-20.777 3.719,-37.39 -23.629,-33 -5.641,0.906 -12.949,5.613 -18.516,2.113 -10.855,-6.82 -8.5,-36.894 -4.418,-46.687 3.778,-9.066 9.344,-16.379 11.856,-26.145 10.168,-2.64 25.691,-6.437 26.867,-17.382 -19.848,-40.063 90.27,-67.5 114.422,-70.364 44.98,-5.32 96.402,9.243 133.582,35.059 17.961,12.48 25.629,27.387 26.996,48.988 -12.047,-3.058 -23.984,-11.679 -35.484,-16.601 -16.274,-6.973 -29.41,-16.27 -46.688,-21.614 -23.898,-7.386 -44.148,-14.277 -69.304,-10.437 -21.157,3.234 -45.286,0.07 -65.149,8.84 -15.582,6.89 -30.883,17.945 -44.976,27.558 -0.254,5.641 2.847,9.922 2.703,15.426 -0.172,6.582 -3.61,10.551 -4.785,16.27 9.078,-2.754 9.363,-14.985 11.82,-23.399 11.719,-3.64 15.14,-5.609 25.441,-12.586 8.348,-5.644 17.43,-9.715 27.047,-12.676 19.215,-5.91 39.746,-6.941 59.633,-4.421 36.633,4.632 74.238,21.871 95.191,53.359 19.75,29.687 19.063,65.504 17.45,99.711 -14.922,-2.758 -31.934,-14.469 -44.985,-21.996 -26.937,-15.547 -49.285,-21.422 -80.695,-18.176 -27.762,2.871 -54.738,20.598 -83.106,19.582 -5.359,11.238 -15.113,34.816 6.387,26.027 12.301,-5.027 19.426,-8.355 33.77,-7.406 20.836,1.399 26.382,11.113 41.668,12.5 15.273,1.399 18.05,1.399 29.168,1.399 11.105,0 15.273,0 33.332,-4.168 18.05,-4.168 31.941,5.55 38.882,6.937 6.95,1.395 2.786,13.895 19.45,25 16.668,11.113 23.609,29.168 23.609,29.168 l -2.773,44.445 c 0,0 8.332,0 16.664,-5.55 8.336,-5.563 16.668,8.332 23.609,31.937 6.941,23.613 5.559,47.231 0,55.563 -5.559,8.332 -15.273,16.668 -23.609,4.168 -8.332,-12.5 -13.891,-5.563 -22.223,-25 -8.336,-19.454 -8.336,8.332 -8.336,8.332 l 19.441,23.609 c 0,0 5.559,-1.395 -8.332,20.832 -13.882,22.227 -27.773,51.391 -27.773,51.391 0,0 18.059,2.773 45.832,9.718 27.773,6.95 41.668,19.45 40.273,26.387 -1.382,6.945 -11.105,27.777 -15.273,33.332 -4.168,5.563 -2.89478,5.95622 -15.39478,4.57422 -12.5,-1.399 -20.824,-13.27121 -27.773,-16.05221 -6.941,-2.769 -2.66422,46.20899 -2.66422,46.20899 l 6.941,11.105 -19.441,0 -13.895,1.395 0,-5.563 6.954,-2.769 0,-8.336 c 0,0 5.558,-1.391 -9.727,-4.164 -15.273,-2.786 -23.609,6.937 -23.609,6.937 l 0,11.109 -16.664,0 -2.786,-6.945 -2.773,-13.887 20.832,-9.714 75.90065,7.92578 c 0,0 3.43544,-41.40022 -42.25855,-46.90033 -9.723,-4.164 -42.36832,-3.94644 -57.64932,0.22156 -15.277,4.168 -38.55167,33.81377 -38.55167,33.81377 l -5.50011,42.43922 -8.332,40.268 c 0,0 -1.394,2.78 8.332,-9.718 9.727,-12.5 16.668,-13.882 20.832,-11.113 4.168,2.777 -11.105,0 13.895,2.777 25,2.786 68.059,18.054 68.059,18.054 0,0 9.714,11.11 34.714,-19.436 25,-30.563 45.832,-65.286 66.668,-86.118 20.832,-20.832 41.664,-34.714 65.282,-58.332 23.609,-23.613 51.384,-58.336 55.554,-83.336 4.16,-25 13.89,-65.277 1.39,-105.546 -12.5,-40.286 -27.776,-70.844 -52.776,-102.786 -25,-31.945 -47.227,-45.832 -52.786,-61.113 -5.546,-15.269 -9.714,-38.887 -15.273,-66.664 -5.559,-27.773 -6.941,-38.891 -11.109,-77.773 -4.164,-38.895 -29.164,-65.282 -54.164,-123.618 -25,-58.332 -41.676,-84.714 -40.286,-115.277 1.391,-30.5546 9.727,-58.3319 9.727,-58.3319 l -13.89233,-166.66933 c 0,0 -97.21667,145.83333 -105.54867,180.56383 -8.336,34.7148 -18.059,70.8244 -33.336,80.5504 -15.282,9.719 -75.004,33.332 -95.836,43.055 -20.832,9.727 -44.442,25 -81.942,54.164 -37.5,29.168 -52.781,52.781 -68.058,80.563 -15.274,27.773 -41.664,62.5 -48.606,83.336 -6.949,20.832 -22.226,66.656 -45.836,88.882 -23.613,22.219 -52.777,43.055 -65.277,55.555 -12.5,12.5 -30.555,19.445 -30.555,19.445 l 12.5,19.45 c 0,0 -4.168,15.269 8.332,58.332 12.5,43.05 13.887,37.5 36.11,73.605 22.226,36.113 20.832,90.277 43.058,134.731 22.219,44.437 5.555,37.5 75,79.164 69.442,41.668 101.387,55.55 148.606,87.504 47.226,31.94 104.172,66.66 104.172,66.66 l 15.273,-6.95"
             style="fill:#231f20;fill-opacity:1;fill-rule:nonzero;stroke:none"
             id="path9105"
             inkscape:connector-curvature="0"
             sodipodi:nodetypes="cscccccscsccccsssccccsccccccsccccccccccccccccccccccccccccccccccccccccccccccscccccccscccccccccccccccccccccccccccccccccccccccccccccccccccccccsccccccccc" /><path
             d="m 605.88604,837.26582 c 13.886,-8.332 20.84,-8.332 23.613,-15.278 2.773,-6.941 16.668,-9.722 19.441,-16.668 2.786,-6.941 11.11,-6.941 16.668,-6.941 5.559,0 13.891,5.555 20.832,11.109 6.95,5.559 11.118,9.723 15.286,15.278 4.164,5.554 4.156,11.113 9.714,11.113 5.559,0 1.391,9.723 1.391,9.723 0,0 1.395,11.109 -16.664,0 -18.059,-11.114 -23.609,-13.891 -33.336,-13.891 -9.723,0 -19.441,11.109 -27.773,11.109 -8.332,0 -29.172,-2.773 -29.172,-2.773"
             style="fill:#231f20;fill-opacity:1;fill-rule:nonzero;stroke:none"
             id="path9107"
             inkscape:connector-curvature="0"
             sodipodi:nodetypes="cccsccsccssc" /><path
             d="m 562.03699,716.54126 c 16.61237,8.58423 7.84599,7.36916 30.46706,22.47934 20.32461,2.34909 22.96164,6.09511 41.01664,8.87211 18.058,2.777 26.10605,8.81655 30.27005,8.81655 4.168,0 22.17038,2.5774 22.17038,2.5774 l 16.89044,-1.02065 19.30397,0.82111 c 0,0 10.74658,1.391 35.74658,-8.332 9.93244,-9.7615 7.26663,-4.21758 11.85392,-16.93563 4.164,-15.277 -6.49121,-13.00344 -6.49121,-13.00344 l -1.33769,17.8069 c 0,0 -36.31749,15.50987 -55.76249,9.95987 -25.57651,-4.11159 -41.20013,-1.88239 -41.20013,-1.88239 0,0 -3.5035,-7.89189 -22.9495,-6.50189 -12.58879,-4.74751 -19.18634,-4.03789 -34.46334,-9.59189 -15.278,-5.555 -28.76899,-22.20208 -28.76899,-22.20208"
             style="fill:#231f20;fill-opacity:1;fill-rule:nonzero;stroke:none"
             id="path9109"
             inkscape:connector-curvature="0"
             sodipodi:nodetypes="cccscccccccccccc" /><path
             d="m 574.62003,690.09188 c 0,0 26.17009,-6.92987 42.39512,-13.75167 16.64415,-6.99802 39.93013,-8.40239 53.82113,-9.78839 13.882,-1.391 25.41173,-1.60961 28.19484,-1.7364 2.72643,-0.12421 21.9896,-0.57998 32.11683,2.80561 23.13139,10.85678 20.66686,14.26976 27.60786,15.65676 6.941,1.391 10.87919,33.18913 12.26219,42.90813 -14.93936,0.0268 -10.10232,-28.64623 -18.43832,-30.03723 -17.77299,-9.04986 -36.10836,-9.55205 -57.53902,-5.29571 -17.09292,1.1904 -6.55227,2.27129 -66.82213,9.43194 -72.54787,14.38173 -66.18102,16.88605 -66.18102,16.88605"
             style="fill:#231f20;fill-opacity:1;fill-rule:nonzero;stroke:none"
             id="path9111"
             inkscape:connector-curvature="0"
             sodipodi:nodetypes="cscsccccccc" /><path
             d="m 700.016,0 c 0,0 24.4442,-157.31033 6.3852,-147.58766 -18.046,9.7187 -60.5492,-1.36934 -68.8852,23.63066 -8.332,25 -20.832,-102.78633 -30.559,-93.06033 -9.723,9.727 -15.277,-106.94234 -45.832,-97.21934 -30.559,9.718 -72.227,220.828003 -102.777,226.386003 -30.555,5.559 -56.946,5.559 -69.446,18.059 -12.5,12.5 -16.668,-87.501333 -36.109,-79.165333 -19.445,8.332 -26.23167,10.34252 -45.00133,10.34252 -18.77353,0 -17.43539,-41.19182 -21.4556,-38.50589 -4.02408,2.68111 -85.43634,5.36221 -88.12131,0 -2.68207,-5.36318 -2.68207,-18.7745 -2.68207,-18.7745 L 184.8073,-197.233 c 0,0 2.67725,13.41035 -10.72925,14.74945 -13.40745,1.33911 -54.97955,-2.6811 -54.97955,-2.6811 l -56.317687,-12.06835 -8.04815,1.33813 c 0,0 4.02407,2.68594 13.41518,25.47968 9.38339,22.79374 5.47849,32.56452 5.47849,32.56452 0,0 0,5.559 -13.891,5.559 -13.886,0 -22.222,9.723 -22.222,9.723 0,0 1.386,-1.395 5.554,13.886 4.168,15.278003 -1.386,23.614003 -1.386,23.614003 0,0 -2.782,2.777 -27.7816,-8.336 -25,-11.114003 -52.7734,-13.887003 -52.7734,-13.887003 l -9.7227,6.941 2.7774,11.114003 -19.44536,5.554 -1.386715,6.946 c 0,0 213.632342,-80.563013 23.609375,4.168 25,9.718 -15.844817,393.875857 10.545783,417.489857 C -6.1094841,368.53419 94.4609,449.648 122.234,466.316 c 27.782,16.668 43.059,23.61 66.668,37.5 23.614,13.891 16.664,36.114 41.664,2.782 25,-33.336 30.559,-29.168 38.895,-45.836 8.332,-16.664 13.887,-36.114 13.887,-36.114 l 9.718,12.5 c 0,0 18.059,8.336 -2.773,29.168 -20.832,20.832 -16.668,18.055 -50,50 -33.332,31.946 -66.668,76.391 -70.832,105.559 -4.168,29.168 1.387,66.668 29.164,113.887 27.777,47.226 52.777,109.722 56.941,154.168 4.168,44.445 1.395,77.777 55.559,136.11 54.168,58.34 79.168,73.62 115.273,137.5 36.114,63.89 50,75 79.168,116.67 29.168,41.67 41.668,79.17 52.782,95.83 11.109,16.67 26.386,27.78 37.5,22.23 11.109,-5.56 31.945,-15.28 31.945,-15.28 0,0 -13.895,0 19.441,-45.83 33.332,-45.84 65.282,-72.23 93.059,-100 27.773,-27.78 69.441,-55.56 88.891,-81.95 19.441,-26.39 4.168,-26.39 37.5,-70.83 33.332,-44.45 58.324,-69.45 84.714,-116.673 26.395,-47.219 40.286,-88.891 63.892,-123.609 23.61,-34.723 38.89,-73.614 40.28,-112.5 1.39,-38.891 1.39,-76.391 -11.11,-112.5 -12.5,-36.114 -30.56,-76.391 -30.56,-76.391 l -6.94,-11.109 c 0,0 6.94,2.777 38.89,0 31.94,-2.782 55.55,-5.555 79.17,-26.391 23.61,-20.832 30.55,-26.391 51.38,-47.223 20.83,-20.836 26.39,-29.168 41.67,-37.5 15.28,-8.336 181.9714,-601.11727 181.9714,-601.11727 0,0 -233.3614,-193.32373 -250.0214,-176.65973 -16.67,16.668 -34.73,30.559 -50,29.168 -15.29,-1.391 -23.62,1.383 -33.34,-9.727 -9.72,-11.105 -12.5,245.838667 -11.11,226.39367 1.39,-19.445 5.56,-29.168 -15.28,-58.332 -20.83,-29.168 -33.33,-33.34 -58.333,-43.059 -25,-9.722 77.7743,55.55766 77.7743,43.05766 0,-12.5 11.118,-22.223 9.727,-37.5 -1.391,-15.277 -8.332,-16.672 -6.941,-26.391 1.382,-9.722 4.168,-12.5 -13.891,-20.836 -18.059,-8.332 -18.051,-5.898 -27.777,-22.566 -9.723,-16.664 66.2079,76.35361 52.3139,58.29461 -13.891,-18.059 37.7834,-106.60868 30.8424,-130.21768 -6.954,-23.613 -94.8683,155.22569 -87.9263,134.39369 -87.5078,-110.19814 -210.45345,134.1536 -182.45323,160.645833 L 809.734,73.2617 805.566,114.93 c 0,0 -6.941,6.945 12.5,45.832 19.45,38.886 26.391,37.504 48.618,81.945 22.214,44.441 33.324,52.777 38.882,101.391 5.559,48.609 4.168,55.55 15.286,95.832 11.105,40.277 -2.786,31.945 26.382,65.277 29.164,33.336 38.891,45.836 61.116,84.723 22.22,38.886 34.72,102.777 33.33,120.832 -1.39,18.058 -15.28,73.613 -40.28,105.558 -25.002,31.942 -40.275,44.442 -73.607,81.942 -33.336,37.5 -54.168,69.445 -81.941,97.226 -27.786,27.782 -44.454,34.722 -77.786,54.172 -33.332,19.44 -58.332,40.27 -84.714,51.38 -26.395,11.12 -45.836,11.12 -45.836,11.12 0,0 15.277,2.77 -36.118,-29.17 -51.386,-31.95 -50,-23.61 -93.05,-55.56 -43.055,-31.942 -69.45,-43.055 -98.614,-59.723 -29.168,-16.664 -38.886,-13.887 -63.886,-38.887 -25,-25 -33.332,-43.058 -37.5,-62.5 -4.168,-19.445 -11.114,-26.39 -22.223,-56.945 -11.109,-30.555 -18.059,-41.668 -36.109,-77.777 -18.055,-36.114 -29.168,-44.45 -33.336,-66.668 -4.164,-22.223 4.168,-43.055 1.386,-55.555 -2.773,-12.5 -15.273,-29.168 -15.273,-29.168 l 9.723,-19.445 c 0,0 27.777,-13.891 38.886,-23.614 11.114,-9.718 31.946,-38.89 41.664,-50 9.727,-11.105 25,-37.5 34.727,-66.664 9.723,-29.168 12.5,-43.05 29.168,-65.277 16.664,-22.223 23.605,-31.949 47.219,-68.059 23.613,-36.105 58.332,-62.5 94.445,-84.718 36.109,-22.223 54.168,-26.387 86.109,-41.668 31.95,-15.278 40.282,-5.555 55.559,-33.332 15.273,-27.7816 16.664,-40.2816 23.605,-56.9456 6.954,-16.668 9.727,-31.9453 18.059,-37.5 C 690.293,27.4297 700.016,0 700.016,0"
             style="fill:#231f20;fill-opacity:1;fill-rule:nonzero;stroke:none"
             id="path9113"
             inkscape:connector-curvature="0"
             sodipodi:nodetypes="cccccsscsccccscccccscccccccccccccccccsccccccsccccccccsscccccccccccsccsscccccccccccccccccccccccccscscccccccccccccccc" /></g></g></g><path
       style="fill:#231f1f;fill-opacity:1;fill-rule:evenodd;stroke:none"
       d="m 149.81123,111.7467 c 31.98945,20.75455 53.40569,16.46323 53.40569,16.46323 l 24.60263,-129.613844 -117.0125,0 c 0,0 5.53616,91.436786 39.00418,113.150614 z"
       id="rect3878"
       inkscape:connector-curvature="0"
       sodipodi:nodetypes="scccs" /></g></svg>