<?xml version="1.0" encoding="UTF-8" standalone="no"?>
<!-- Created with Inkscape (http://www.inkscape.org/) -->

<svg
   xmlns:dc="http://purl.org/dc/elements/1.1/"
   xmlns:cc="http://creativecommons.org/ns#"
   xmlns:rdf="http://www.w3.org/1999/02/22-rdf-syntax-ns#"
   xmlns:svg="http://www.w3.org/2000/svg"
   xmlns="http://www.w3.org/2000/svg"
   xmlns:sodipodi="http://sodipodi.sourceforge.net/DTD/sodipodi-0.dtd"
   xmlns:inkscape="http://www.inkscape.org/namespaces/inkscape"
   width="200"
   height="200"
   id="svg2"
   version="1.1"
   inkscape:version="0.48.3.1 r9886"
   sodipodi:docname="symbol.svg"
   inkscape:export-filename="symbol-200.png"
   inkscape:export-xdpi="90"
   inkscape:export-ydpi="90">
  <defs
     id="defs4" />
  <sodipodi:namedview
     id="base"
     pagecolor="#ffffff"
     bordercolor="#666666"
     borderopacity="1.0"
     inkscape:pageopacity="0.0"
     inkscape:pageshadow="2"
     inkscape:zoom="4.83"
     inkscape:cx="100"
     inkscape:cy="100"
     inkscape:document-units="px"
     inkscape:current-layer="layer1"
     showgrid="false"
     inkscape:window-width="1541"
     inkscape:window-height="1104"
     inkscape:window-x="99"
     inkscape:window-y="132"
     inkscape:window-maximized="0" />
  <metadata
     id="metadata7">
    <rdf:RDF>
      <cc:Work
         rdf:about="">
        <dc:format>image/svg+xml</dc:format>
        <dc:type
           rdf:resource="http://purl.org/dc/dcmitype/StillImage" />
        <dc:title></dc:title>
      </cc:Work>
    </rdf:RDF>
  </metadata>
  <g
     inkscape:label="Layer 1"
     inkscape:groupmode="layer"
     id="layer1"
     transform="translate(0,-852.36218)">
    <path
       style="fill:#090909"
       d="m 54.542037,1045.8401 c 2.911163,-0.4391 -0.411773,0.6077 0,0 z m 102.580613,-5.0323 c -7.24872,-1.9821 -8.41891,-1.7152 -20.21972,-5.0535 -15.07612,-0.3746 -15.56901,1.6561 -22.77959,3.9197 -7.90556,1.7871 -14.965282,-4.7149 -22.75269,-0.074 -7.018069,-2.4542 -15.148028,-3.3221 -23.803079,-6.8662 -8.094704,-2.1973 -12.137006,0.086 -20.7341,-0.1591 -7.726146,-1.1069 -17.129227,-2.4763 -24.185068,-3.0624 -12.6652725,1.9822 -9.841357,-12.6811 -13.0556075,-20.3804 -0.783815,-8.3651 -1.347315,-16.35636 -2.034629,-24.78276 -1.3484827,-9.45199 0.26132,-18.34421 -0.615311,-27.83894 0.607033,-7.42454 -2.3506636,-12.2544 -2.0774089,-17.05136 -0.4005041,-5.89347 -0.2083999,-12.3504 -0.6093285,-19.81835 -0.4362408,-10.02316 0.9284891,-19.83147 1.8817256,-29.73548 4.4895803,-3.67768 3.7596398,-8.24984 6.8210253,-11.81984 5.654188,-4.8974 12.121029,-9.94338 20.064038,-8.49953 9.028877,0.18408 16.930166,-3.05982 25.803486,-0.76944 10.414842,1.31967 20.056887,-4.56126 30.379832,-0.86158 8.808904,0.65771 17.809475,0.79394 25.708165,1.72538 13.27097,0.98623 14.44468,1.1022 20.59732,-0.097 7.42925,-2.93139 16.46855,0.18698 23.44416,-2.54209 5.96454,4.4203 16.61474,-0.15157 20.39453,5.03208 2.18018,12.16323 1.68565,24.68381 4.36562,36.73155 2.35792,4.31117 1.40014,10.0989 4.52486,15.85354 0.72159,7.38285 3.74761,16.03357 4.78652,24.12479 0.73775,7.70433 -2.52278,17.08995 0.57035,24.06951 3.99538,5.11342 -1.38948,12.49927 2.23123,18.15598 -0.97397,7.48367 -0.58898,15.19564 -0.7096,22.94064 -4.21643,7.1361 5.219,20.6024 -5.34749,22.0638 -8.44638,2.7182 -17.15061,4.1501 -26.23166,4.8267 -2.11566,0.1111 -4.33503,0.5654 -6.41758,-0.031 z m -59.167802,-9.7207 c 8.176392,-0.2069 12.798942,-6.2967 20.196702,-4.3596 6.21361,1.1736 12.66092,0.2467 18.96701,0.062 2.56804,-2.4408 12.35914,1.0643 17.50848,-0.3754 7.98196,-0.068 16.99548,1.0411 24.51573,-0.078 -0.56511,-3.268 1.12256,-8.1226 1.81572,-12.1626 0.86953,-5.0681 2.79649,-9.1537 2.93824,-15.14397 -2.22614,-5.80901 1.07858,-12.26372 -0.83235,-18.75653 -1.13537,-6.01012 -1.54015,-9.99828 -0.71535,-14.97556 2.01066,-8.3223 -4.60682,-16.73442 -4.10735,-25.78215 -0.82565,-10.21295 -0.40462,-20.51668 -2.33926,-30.61694 -2.75563,-8.47474 -1.09711,-17.06043 -3.35746,-24.89144 1.66568,-10.24922 -8.12166,-6.08431 -13.87148,-5.53572 -8.48409,3.18389 -16.50549,-0.0801 -25.66751,1.66219 -8.92224,2.80182 -17.93959,0.33662 -26.8282,1.47008 -9.549742,0.53808 -18.493869,-3.22209 -28.203394,-2.25178 -3.571578,-0.44053 -19.833514,1.31862 -10.685482,5.55097 6.940334,3.21099 4.984366,3.12995 5.962089,5.69954 2.534587,6.66137 -1.59669,15.21088 -1.724827,21.31217 -0.128726,6.12898 -1.735161,9.45315 -2.590749,14.1819 -1.150097,6.35639 -4.688023,12.54278 -3.418018,19.07525 -4.474028,4.17562 -2.360013,10.77958 -5.19429,16.0328 -5.73312,10.36394 7.249334,10.18468 12.569031,5.48024 3.486579,-3.84633 6.018618,-8.24057 8.337781,-11.59697 5.816788,-2.58522 0.688424,-8.04076 6.317083,-11.32364 3.463124,-6.08904 3.385022,-13.49563 5.657526,-20.3789 0.695053,-5.41261 7.31027,-8.65294 4.432038,-13.95913 3.837242,-0.93944 9.087862,-11.65341 0.89004,-9.38764 0.11352,5.91962 -10.854024,4.55807 -15.561768,5.63741 -5.437143,2.90544 -13.025533,-2.83733 -4.72347,-5.27348 1.699298,-8.97548 14.265416,-2.75272 17.670314,-9.06 5.109106,-5.1687 17.475766,-6.71819 16.399596,3.79828 1.87144,4.86103 -6.1148,9.65085 -5.38891,16.17676 -2.97076,6.2972 -1.36776,5.09633 -3.26197,10.19114 -3.47209,5.23074 -1.46785,6.39131 -3.44392,11.12199 -2.183305,5.22679 -4.045734,5.00702 -4.950498,9.05411 -1.461494,6.53739 -0.702286,3.57351 -2.357601,7.0828 -2.977147,6.31159 -4.585184,14.47289 -7.127749,18.84639 0.287572,4.02347 -8.444962,5.05862 -7.282101,10.15235 -4.176604,4.27317 -13.623149,0.65974 -16.970649,6.29532 8.270407,2.42911 20.566069,5.1031 26.25336,-2.76072 5.538236,-0.15919 8.113007,-3.10236 13.363008,1.46633 8.89838,3.81902 18.17505,3.8937 27.88679,2.60123 8.6651,-0.51733 16.82673,0.2606 25.32352,1.41538 5.1001,1.8345 16.25098,-4.98596 17.83988,1.76803 6.24745,7.4419 -9.63725,6.90566 -13.93838,10.69204 -8.25281,2.47277 -16.56715,2.61727 -24.62186,0.79317 -8.64394,-0.25197 -14.91743,-7.90189 -24.16175,-6.16831 -5.74954,-0.36934 0.05,1.53135 -11.889962,3.15404 -6.268077,-1.12253 -13.542854,0.014 -18.363366,-1.54502 -4.223233,-1.39049 -12.32229,-4.73531 -18.314896,-2.15231 -5.324116,0 -4.504419,3.34313 -5.000343,5.67133 -3.13501,7.66897 -10.224562,11.95577 -18.297048,14.67867 -7.270609,-1.1525 -10.700572,-13.4066 0.0741,-10.4261 6.382874,-2.2413 10.933189,-9.43725 12.717603,-16.2527 0.923945,-2.79468 -0.582043,-10.27276 -0.582043,-10.27276 0.444471,-6.12474 2.963861,-11.68294 4.426018,-17.52942 1.504744,-6.01678 2.509887,-14.03024 4.473535,-18.06046 3.414777,-7.00851 2.155907,-6.29387 2.929572,-9.52397 2.035758,-8.49953 5.443376,-16.90827 4.481321,-25.83397 1.814594,-6.10881 -0.952397,-13.18206 -6.667031,-6.42923 -8.20041,1.42908 -16.828494,3.32273 -26.328094,2.53418 -6.073313,-1.44809 -9.60491,2.89744 -15.184045,4.09082 -1.991859,5.48439 -2.126403,8.43971 -3.454865,13.21979 -1.937154,6.97049 1.707557,16.74473 0.117148,22.6766 -0.230359,5.88421 2.14044,9.06733 1.878763,21.90332 -0.710499,25.36024 -0.927418,22.78428 -0.04236,30.80941 1.874711,8.09579 2.333461,8.14199 4.120317,16.43629 3.260329,3.9321 2.554548,11.9834 8.034076,12.6732 11.105457,2.6359 22.431045,-1.5821 33.585013,0.7232 6.8642,-2.9432 16.047573,-0.959 19.555551,5.0548 5.292547,0.3468 11.118935,2.3172 16.213531,1.6192 z m 26.182682,-59.92611 c -6.63809,-3.69688 -13.66609,-3.60146 -20.73931,-6.67073 6.62642,-3.3042 16.47045,-0.11828 24.44822,-1.64375 3.17868,-3.36856 8.95336,1.27025 12.70398,-7.3721 8.30721,-8.34658 4.45953,-11.36363 9.47464,-16.35433 3.47986,-5.5636 7.74835,-11.68892 9.35468,-16.62191 7.01934,-1.93861 15.56371,0.86331 10.31976,8.73793 -5.63398,2.16563 -2.01411,11.07076 -7.64231,13.82743 -2.91881,7.13982 -8.48501,10.73356 -13.20401,17.58857 -5.10952,6.57849 -12.9479,7.14908 -19.59043,8.52645 -1.69405,-0.16817 -3.85423,1.94603 -5.12522,-0.0174 z m 46.8611,-21.0509 c 1.50702,-1.43564 0.91594,1.54033 0,0 z m -32.25141,-14.10626 c -1.24058,-6.14278 -12.09209,-2.52888 -17.03003,-4.0993 -7.41235,1.04856 -7.7907,-8.73099 -0.01,-8.01346 6.54273,0.0357 19.71194,-3.74869 22.28475,3.39846 0.38649,3.88164 -4.7855,7.73376 -5.24543,8.7143 z m -13.8668,-16.93027 c -8.42112,-0.81653 -8.44077,-9.05315 -6.93216,-14.53966 5.81384,-4.79667 3.46609,-12.80723 10.66803,-17.28416 7.56208,-1.98144 16.02032,-5.0182 20.71781,2.69935 1.81736,8.78136 0.25961,19.92419 -8.23243,24.86423 -4.25327,4.38508 -10.44709,5.30253 -16.22125,4.26024 z m 10.6449,-9.47612 c 8.36675,0.84412 12.97383,-16.64893 4.74993,-17.38238 -9.80731,-4.72402 -12.59132,9.75533 -14.63038,15.82816 2.97447,1.99003 6.40908,2.66366 9.88045,1.55422 z m -63.02174,68.15545 c -1.381884,-1.29334 -1.38199,1.29343 0,0 z m 25.599158,-39.82628 c -0.446446,-2.58519 0.368887,2.13608 0,0 z m -58.40929,-44.74626 c 7.572452,1.00418 2.180529,-6.51307 18.801163,-5.4895 3.53178,-9.60212 -14.16386,-9.38485 -19.592503,-6.51086 -5.413023,0.63504 -9.23555,-0.58603 -14.675511,-0.3592 -3.941305,4.19405 -0.899033,12.51335 3.736899,11.18008 3.799951,2.14893 6.962766,2.11246 11.729952,1.17948 z M 4.1710215,871.89057 c 0.9046099,-1.27018 0.9046099,1.27018 0,0 z m 0.048241,-11.77228 c 1.1108486,-4.09728 0.3749365,2.5419 0,0 z M 58.164376,859.1446 c 0.07362,-1.48244 3.866773,1.2367 0,0 z"
       id="path2998"
       inkscape:connector-curvature="0"
       sodipodi:nodetypes="cccccccccccccccccccccccccccccccccccccaccccccccccsasacccccccccccccccsssccccccccccccccccccasaccccsccccccccccccccccccccccccccccccccccccccccccsscccccccccccc" />
  </g>
</svg>
